:SAMPLES-PER-SECOND 30
:FULLY-SPECIFIED
:DEGREES
1
root  4.63585 40.9936 -0.144725 -167.851 -84.461 167.167
RightUpLeg  -1.11061 -8.16713 -5.59469
RightLeg  5.52638 -1.7441 3.3524
RightFoot  -2.96435 -0.0131842 -0.0952088
RightToes  0.000482159 0.542163 -0.142577
Spine  6.99115 -0.226325 -2.31954
Spine1  -2.14021 -0.483204 1.17088
HEad  -1.7856 -11.6803 -1.73585
LeftShoulder1  2.0307 -5.75006 -15.0746
LeftArm  -18.6872 13.4944 -4.72446
LeftForeArm  7.11424 -3.30838 -1.01646
LeftHand  -0.25398 0.0180481 5.50724
RightShoulder  1.20417 2.5913 12.7516
RightArm  -22.3083 -4.18828 3.9
RightForeArm  5.99852 8.08372 2.94738
RightHand  -2.07075 7.90236 -18.2996
LeftUpLeg  1.48037 4.37548 0.623776
LeftLeg  1.6487 15.4879 -4.37136
LeftFoot  -2.7584 -0.175003 2.62132
LeftToes  1.06247e-005 4.65855e-005 -8.18504e-006
2
root  4.59787 40.9936 -0.137329 -168.265 -84.4039 167.647
RightUpLeg  -1.11014 -8.14939 -5.56591
RightLeg  5.49414 -1.69086 3.35481
RightFoot  -2.954 -0.0106693 -0.134261
RightToes  0.000482159 0.542163 -0.142577
Spine  6.84777 -0.236236 -2.23065
Spine1  -2.0323 -0.465329 1.03465
HEad  -1.74925 -11.6809 -1.61472
LeftShoulder1  1.99567 -5.66384 -14.8811
LeftArm  -18.8059 13.4905 -4.89686
LeftForeArm  7.23111 -3.35956 -0.984133
LeftHand  -0.25398 0.0180481 5.50724
RightShoulder  1.21234 2.58988 12.9046
RightArm  -22.2537 -4.1332 3.83064
RightForeArm  6.00779 8.04227 2.95798
RightHand  -2.07273 7.96126 -18.2979
LeftUpLeg  1.49586 4.40048 0.650961
LeftLeg  1.60799 15.5267 -4.39709
LeftFoot  -2.79058 -0.174856 2.61902
LeftToes  1.06247e-005 4.65855e-005 -8.18504e-006
3
root  4.5281 40.9936 -0.123906 -168.803 -84.3338 168.273
RightUpLeg  -1.09444 -8.13465 -5.54352
RightLeg  5.45538 -1.61436 3.36156
RightFoot  -2.94521 -0.00832292 -0.170696
RightToes  0.000482159 0.542163 -0.142577
Spine  6.62192 -0.273653 -2.07901
Spine1  -1.82607 -0.451669 0.774585
HEad  -1.74812 -11.6418 -1.43148
LeftShoulder1  1.92931 -5.4852 -14.546
LeftArm  -18.9675 13.478 -5.20438
LeftForeArm  7.3018 -3.47351 -0.958138
LeftHand  -0.25398 0.0180481 5.50724
RightShoulder  1.22465 2.56529 13.2183
RightArm  -22.2166 -3.98688 3.70222
RightForeArm  6.00092 7.9811 2.96941
RightHand  -2.07136 7.96738 -18.293
LeftUpLeg  1.55283 4.42092 0.674274
LeftLeg  1.53311 15.6016 -4.4235
LeftFoot  -2.82998 -0.175314 2.62615
LeftToes  1.06247e-005 4.65855e-005 -8.18504e-006
4
root  4.45934 40.9936 -0.108317 -169.002 -84.2959 168.481
RightUpLeg  -1.02662 -8.1571 -5.5831
RightLeg  5.49362 -1.54444 3.36876
RightFoot  -2.96159 -0.00899905 -0.160197
RightToes  0.000482159 0.542163 -0.142577
Spine  6.56547 -0.310161 -2.02966
Spine1  -1.73075 -0.469347 0.67419
HEad  -1.78366 -11.5976 -1.35576
LeftShoulder1  1.89728 -5.36979 -14.4551
LeftArm  -19.0413 13.4985 -5.34111
LeftForeArm  7.23391 -3.57386 -0.954664
LeftHand  -0.25398 0.0180481 5.50724
RightShoulder  1.22782 2.52715 13.4018
RightArm  -22.2233 -3.83507 3.64298
RightForeArm  6.20703 7.91857 2.95559
RightHand  -2.0765 8.01997 -18.2649
LeftUpLeg  1.688 4.41375 0.650579
LeftLeg  1.45206 15.654 -4.4385
LeftFoot  -2.85965 -0.179761 2.69534
LeftToes  1.06247e-005 4.65855e-005 -8.18504e-006
5
root  4.40092 40.9929 -0.0875695 -168.982 -84.2809 168.406
RightUpLeg  -0.933091 -8.20025 -5.66082
RightLeg  5.60289 -1.49017 3.36573
RightFoot  -3.01919 -0.0119145 -0.118163
RightToes  0.000482159 0.542163 -0.142577
Spine  6.68899 -0.32532 -2.10507
Spine1  -1.80721 -0.514245 0.827913
HEad  -1.77987 -11.5861 -1.41966
LeftShoulder1  1.91483 -5.37301 -14.6623
LeftArm  -19.0573 13.5549 -5.28127
LeftForeArm  7.16576 -3.56576 -0.934606
LeftHand  -0.25398 0.0180481 5.50724
RightShoulder  1.22762 2.54039 13.3142
RightArm  -22.2444 -3.80732 3.69789
RightForeArm  6.7028 7.88361 2.91394
RightHand  -2.12933 8.32929 -18.31
LeftUpLeg  1.84567 4.39118 0.592848
LeftLeg  1.42607 15.6756 -4.43644
LeftFoot  -2.91827 -0.186188 2.79535
LeftToes  1.06247e-005 4.65855e-005 -8.18504e-006
